# Blender v2.83.0 OBJ File: 'newuvmappedterminal.blend'
# www.blender.org
mtllib platforms.mtl
o Cube.001_Cube.001
v -0.708089 -0.032792 1.137553
v -0.708089 0.032792 1.137553
v -0.646484 0.032792 -1.143516
v -0.646484 -0.032792 -1.143516
v -0.425693 0.032792 -1.137553
v -0.425693 -0.032792 -1.137553
v -0.487299 0.032792 1.143516
v -0.487299 -0.032792 1.143516
v -0.039615 -0.032792 1.142139
v -0.039615 0.032792 1.142139
v -0.065716 0.032792 -1.139612
v -0.065716 -0.032792 -1.139612
v 0.155140 0.032792 -1.142139
v 0.155140 -0.032792 -1.142139
v 0.181241 0.032792 1.139612
v 0.181241 -0.032792 1.139612
v -1.315564 -0.032792 1.140597
v -1.315564 0.032792 1.140597
v -1.308375 0.032792 -1.141292
v -1.308375 -0.032792 -1.141292
v -1.087505 0.032792 -1.140597
v -1.087505 -0.032792 -1.140597
v -1.094694 0.032792 1.141292
v -1.094694 -0.032792 1.141292
v -1.956397 -0.032792 1.141225
v -1.956397 0.032792 1.141225
v -1.962142 0.032792 -1.140669
v -1.962142 -0.032792 -1.140669
v -1.741271 0.032792 -1.141225
v -1.741271 -0.032792 -1.141225
v -1.735527 0.032792 1.140669
v -1.735527 -0.032792 1.140669
v -2.636352 -0.032792 1.142139
v -2.636352 0.032792 1.142139
v -2.662453 0.032792 -1.139612
v -2.662453 -0.032792 -1.139612
v -2.441596 0.032792 -1.142139
v -2.441596 -0.032792 -1.142139
v -2.415495 0.032792 1.139612
v -2.415495 -0.032792 1.139612
v -3.304826 -0.032792 1.137553
v -3.304826 0.032792 1.137553
v -3.243221 0.032792 -1.143516
v -3.243221 -0.032792 -1.143516
v -3.022430 0.032792 -1.137553
v -3.022430 -0.032792 -1.137553
v -3.084035 0.032792 1.143516
v -3.084035 -0.032792 1.143516
v -3.912301 -0.032792 1.140597
v -3.912301 0.032792 1.140597
v -3.905112 0.032792 -1.141292
v -3.905112 -0.032792 -1.141292
v -3.684242 0.032792 -1.140597
v -3.684242 -0.032792 -1.140597
v -3.691431 0.032792 1.141292
v -3.691431 -0.032792 1.141292
v -4.553133 -0.032792 1.141225
v -4.553133 0.032792 1.141225
v -4.558878 0.032792 -1.140669
v -4.558878 -0.032792 -1.140669
v -4.338007 0.032792 -1.141225
v -4.338007 -0.032792 -1.141225
v -4.332263 0.032792 1.140669
v -4.332263 -0.032792 1.140669
v -5.144344 -0.032792 1.142139
v -5.144344 0.032792 1.142139
v -5.170445 0.032792 -1.139612
v -5.170445 -0.032792 -1.139612
v -4.949589 0.032792 -1.142139
v -4.949589 -0.032792 -1.142139
v -4.923488 0.032792 1.139612
v -4.923488 -0.032792 1.139612
v -5.812819 -0.032792 1.137553
v -5.812819 0.032792 1.137553
v -5.751213 0.032792 -1.143516
v -5.751213 -0.032792 -1.143516
v -5.530422 0.032792 -1.137553
v -5.530422 -0.032792 -1.137553
v -5.592028 0.032792 1.143516
v -5.592028 -0.032792 1.143516
v -6.420293 -0.032792 1.140597
v -6.420293 0.032792 1.140597
v -6.413105 0.032792 -1.141292
v -6.413105 -0.032792 -1.141292
v -6.192235 0.032792 -1.140597
v -6.192235 -0.032792 -1.140597
v -6.199423 0.032792 1.141292
v -6.199423 -0.032792 1.141292
v -7.061126 -0.032792 1.141225
v -7.061126 0.032792 1.141225
v -7.066871 0.032792 -1.140669
v -7.066871 -0.032792 -1.140669
v -6.846000 0.032792 -1.141225
v -6.846000 -0.032792 -1.141225
v -6.840256 0.032792 1.140669
v -6.840256 -0.032792 1.140669
v -9.657863 -0.032792 1.141225
v -9.657863 0.032792 1.141225
v -9.663607 0.032792 -1.140669
v -9.663607 -0.032792 -1.140669
v -9.442737 0.032792 -1.141225
v -9.442737 -0.032792 -1.141225
v -9.436993 0.032792 1.140669
v -9.436993 -0.032792 1.140669
v -9.017030 -0.032792 1.140597
v -9.017030 0.032792 1.140597
v -9.009841 0.032792 -1.141292
v -9.009841 -0.032792 -1.141292
v -8.788970 0.032792 -1.140597
v -8.788970 -0.032792 -1.140597
v -8.796159 0.032792 1.141292
v -8.796159 -0.032792 1.141292
v -8.409555 -0.032792 1.137553
v -8.409555 0.032792 1.137553
v -8.347950 0.032792 -1.143516
v -8.347950 -0.032792 -1.143516
v -8.127159 0.032792 -1.137553
v -8.127159 -0.032792 -1.137553
v -8.188765 0.032792 1.143516
v -8.188765 -0.032792 1.143516
v -7.741081 -0.032792 1.142139
v -7.741081 0.032792 1.142139
v -7.767182 0.032792 -1.139612
v -7.767182 -0.032792 -1.139612
v -7.546325 0.032792 -1.142139
v -7.546325 -0.032792 -1.142139
v -7.520224 0.032792 1.139612
v -7.520224 -0.032792 1.139612
v -13.612266 -0.032792 2.064148
v -13.612266 0.032792 2.064148
v -13.622637 0.032792 -2.055645
v -13.622637 -0.032792 -2.055645
v -10.244805 0.032792 -2.064148
v -10.244805 -0.032792 -2.064148
v -10.234434 0.032792 2.055645
v -10.234434 -0.032792 2.055645
vt 0.414004 0.139488
vt 0.588003 0.139488
vt 0.588003 0.313487
vt 0.414004 0.313487
vt 0.588003 0.487487
vt 0.414004 0.487487
vt 0.588003 0.661486
vt 0.414004 0.661486
vt 0.588003 0.835486
vt 0.414004 0.835486
vt 0.240005 0.487487
vt 0.240005 0.661486
vt 0.762003 0.487487
vt 0.762003 0.661486
vt 0.414004 0.139488
vt 0.588003 0.139488
vt 0.588003 0.313487
vt 0.414004 0.313487
vt 0.588003 0.487487
vt 0.414004 0.487487
vt 0.588003 0.661486
vt 0.414004 0.661486
vt 0.588003 0.835486
vt 0.414004 0.835486
vt 0.240005 0.487487
vt 0.240005 0.661486
vt 0.762003 0.487487
vt 0.762003 0.661486
vt 0.414004 0.139488
vt 0.588003 0.139488
vt 0.588003 0.313487
vt 0.414004 0.313487
vt 0.588003 0.487487
vt 0.414004 0.487487
vt 0.588003 0.661486
vt 0.414004 0.661486
vt 0.588003 0.835486
vt 0.414004 0.835486
vt 0.240005 0.487487
vt 0.240005 0.661486
vt 0.762003 0.487487
vt 0.762003 0.661486
vt 0.414004 0.139488
vt 0.588003 0.139488
vt 0.588003 0.313487
vt 0.414004 0.313487
vt 0.588003 0.487487
vt 0.414004 0.487487
vt 0.588003 0.661486
vt 0.414004 0.661486
vt 0.588003 0.835486
vt 0.414004 0.835486
vt 0.240005 0.487487
vt 0.240005 0.661486
vt 0.762003 0.487487
vt 0.762003 0.661486
vt 0.414004 0.139488
vt 0.588003 0.139488
vt 0.588003 0.313487
vt 0.414004 0.313487
vt 0.588003 0.487487
vt 0.414004 0.487487
vt 0.588003 0.661486
vt 0.414004 0.661486
vt 0.588003 0.835486
vt 0.414004 0.835486
vt 0.240005 0.487487
vt 0.240005 0.661486
vt 0.762003 0.487487
vt 0.762003 0.661486
vt 0.414004 0.139488
vt 0.588003 0.139488
vt 0.588003 0.313487
vt 0.414004 0.313487
vt 0.588003 0.487487
vt 0.414004 0.487487
vt 0.588003 0.661486
vt 0.414004 0.661486
vt 0.588003 0.835486
vt 0.414004 0.835486
vt 0.240005 0.487487
vt 0.240005 0.661486
vt 0.762003 0.487487
vt 0.762003 0.661486
vt 0.414004 0.139488
vt 0.588003 0.139488
vt 0.588003 0.313487
vt 0.414004 0.313487
vt 0.588003 0.487487
vt 0.414004 0.487487
vt 0.588003 0.661486
vt 0.414004 0.661486
vt 0.588003 0.835486
vt 0.414004 0.835486
vt 0.240005 0.487487
vt 0.240005 0.661486
vt 0.762003 0.487487
vt 0.762003 0.661486
vt 0.414004 0.139488
vt 0.588003 0.139488
vt 0.588003 0.313487
vt 0.414004 0.313487
vt 0.588003 0.487487
vt 0.414004 0.487487
vt 0.588003 0.661486
vt 0.414004 0.661486
vt 0.588003 0.835486
vt 0.414004 0.835486
vt 0.240005 0.487487
vt 0.240005 0.661486
vt 0.762003 0.487487
vt 0.762003 0.661486
vt 0.414004 0.139488
vt 0.588003 0.139488
vt 0.588003 0.313487
vt 0.414004 0.313487
vt 0.588003 0.487487
vt 0.414004 0.487487
vt 0.588003 0.661486
vt 0.414004 0.661486
vt 0.588003 0.835486
vt 0.414004 0.835486
vt 0.240005 0.487487
vt 0.240005 0.661486
vt 0.762003 0.487487
vt 0.762003 0.661486
vt 0.414004 0.139488
vt 0.588003 0.139488
vt 0.588003 0.313487
vt 0.414004 0.313487
vt 0.588003 0.487487
vt 0.414004 0.487487
vt 0.588003 0.661486
vt 0.414004 0.661486
vt 0.588003 0.835486
vt 0.414004 0.835486
vt 0.240005 0.487487
vt 0.240005 0.661486
vt 0.762003 0.487487
vt 0.762003 0.661486
vt 0.414004 0.139488
vt 0.588003 0.139488
vt 0.588003 0.313487
vt 0.414004 0.313487
vt 0.588003 0.487487
vt 0.414004 0.487487
vt 0.588003 0.661486
vt 0.414004 0.661486
vt 0.588003 0.835486
vt 0.414004 0.835486
vt 0.240005 0.487487
vt 0.240005 0.661486
vt 0.762003 0.487487
vt 0.762003 0.661486
vt 0.414004 0.139488
vt 0.588003 0.139488
vt 0.588003 0.313487
vt 0.414004 0.313487
vt 0.588003 0.487487
vt 0.414004 0.487487
vt 0.588003 0.661486
vt 0.414004 0.661486
vt 0.588003 0.835486
vt 0.414004 0.835486
vt 0.240005 0.487487
vt 0.240005 0.661486
vt 0.762003 0.487487
vt 0.762003 0.661486
vt 0.414004 0.139488
vt 0.588003 0.139488
vt 0.588003 0.313487
vt 0.414004 0.313487
vt 0.588003 0.487487
vt 0.414004 0.487487
vt 0.588003 0.661486
vt 0.414004 0.661486
vt 0.588003 0.835486
vt 0.414004 0.835486
vt 0.240005 0.487487
vt 0.240005 0.661486
vt 0.762003 0.487487
vt 0.762003 0.661486
vt 0.414004 0.139488
vt 0.588003 0.139488
vt 0.588003 0.313487
vt 0.414004 0.313487
vt 0.588003 0.487487
vt 0.414004 0.487487
vt 0.588003 0.661486
vt 0.414004 0.661486
vt 0.588003 0.835486
vt 0.414004 0.835486
vt 0.240005 0.487487
vt 0.240005 0.661486
vt 0.762003 0.487487
vt 0.762003 0.661486
vt 0.414004 0.139488
vt 0.588003 0.139488
vt 0.588003 0.313487
vt 0.414004 0.313487
vt 0.588003 0.487487
vt 0.414004 0.487487
vt 0.588003 0.661486
vt 0.414004 0.661486
vt 0.588003 0.835486
vt 0.414004 0.835486
vt 0.240005 0.487487
vt 0.240005 0.661486
vt 0.762003 0.487487
vt 0.762003 0.661486
vt 0.414004 0.139488
vt 0.588003 0.139488
vt 0.588003 0.313487
vt 0.414004 0.313487
vt 0.588003 0.487487
vt 0.414004 0.487487
vt 0.588003 0.661486
vt 0.414004 0.661486
vt 0.588003 0.835486
vt 0.414004 0.835486
vt 0.240005 0.487487
vt 0.240005 0.661486
vt 0.762003 0.487487
vt 0.762003 0.661486
vt 0.414004 0.139488
vt 0.588003 0.139488
vt 0.588003 0.313487
vt 0.414004 0.313487
vt 0.588003 0.487487
vt 0.414004 0.487487
vt 0.588003 0.661486
vt 0.414004 0.661486
vt 0.588003 0.835486
vt 0.414004 0.835486
vt 0.240005 0.487487
vt 0.240005 0.661486
vt 0.762003 0.487487
vt 0.762003 0.661486
vn -0.9996 0.0000 -0.0270
vn 0.0270 0.0000 -0.9996
vn 0.9996 0.0000 0.0270
vn -0.0270 0.0000 0.9996
vn 0.0000 -1.0000 -0.0000
vn -0.0000 1.0000 0.0000
vn -0.9999 0.0000 0.0114
vn -0.0114 0.0000 -0.9999
vn 0.9999 0.0000 -0.0114
vn 0.0114 0.0000 0.9999
vn -1.0000 0.0000 -0.0032
vn 0.0031 0.0000 -1.0000
vn 1.0000 0.0000 0.0032
vn -0.0031 0.0000 1.0000
vn -1.0000 0.0000 0.0025
vn -0.0025 0.0000 -1.0000
vn 1.0000 0.0000 -0.0025
vn 0.0025 0.0000 1.0000
vn -1.0000 0.0000 -0.0031
vn 1.0000 0.0000 0.0031
usemtl None.001
s 1
f 1/1/1 2/2/1 3/3/1 4/4/1
f 4/4/2 3/3/2 5/5/2 6/6/2
f 6/6/3 5/5/3 7/7/3 8/8/3
f 8/8/4 7/7/4 2/9/4 1/10/4
f 4/11/5 6/6/5 8/8/5 1/12/5
f 5/5/6 3/13/6 2/14/6 7/7/6
f 9/15/7 10/16/7 11/17/7 12/18/7
f 12/18/8 11/17/8 13/19/8 14/20/8
f 14/20/9 13/19/9 15/21/9 16/22/9
f 16/22/10 15/21/10 10/23/10 9/24/10
f 12/25/5 14/20/5 16/22/5 9/26/5
f 13/19/6 11/27/6 10/28/6 15/21/6
f 17/29/11 18/30/11 19/31/11 20/32/11
f 20/32/12 19/31/12 21/33/12 22/34/12
f 22/34/13 21/33/13 23/35/13 24/36/13
f 24/36/14 23/35/14 18/37/14 17/38/14
f 20/39/5 22/34/5 24/36/5 17/40/5
f 21/33/6 19/41/6 18/42/6 23/35/6
f 25/43/15 26/44/15 27/45/15 28/46/15
f 28/46/16 27/45/16 29/47/16 30/48/16
f 30/48/17 29/47/17 31/49/17 32/50/17
f 32/50/18 31/49/18 26/51/18 25/52/18
f 28/53/5 30/48/5 32/50/5 25/54/5
f 29/47/6 27/55/6 26/56/6 31/49/6
f 33/57/7 34/58/7 35/59/7 36/60/7
f 36/60/8 35/59/8 37/61/8 38/62/8
f 38/62/9 37/61/9 39/63/9 40/64/9
f 40/64/10 39/63/10 34/65/10 33/66/10
f 36/67/5 38/62/5 40/64/5 33/68/5
f 37/61/6 35/69/6 34/70/6 39/63/6
f 41/71/1 42/72/1 43/73/1 44/74/1
f 44/74/2 43/73/2 45/75/2 46/76/2
f 46/76/3 45/75/3 47/77/3 48/78/3
f 48/78/4 47/77/4 42/79/4 41/80/4
f 44/81/5 46/76/5 48/78/5 41/82/5
f 45/75/6 43/83/6 42/84/6 47/77/6
f 49/85/11 50/86/11 51/87/11 52/88/11
f 52/88/12 51/87/12 53/89/12 54/90/12
f 54/90/13 53/89/13 55/91/13 56/92/13
f 56/92/14 55/91/14 50/93/14 49/94/14
f 52/95/5 54/90/5 56/92/5 49/96/5
f 53/89/6 51/97/6 50/98/6 55/91/6
f 57/99/15 58/100/15 59/101/15 60/102/15
f 60/102/16 59/101/16 61/103/16 62/104/16
f 62/104/17 61/103/17 63/105/17 64/106/17
f 64/106/18 63/105/18 58/107/18 57/108/18
f 60/109/5 62/104/5 64/106/5 57/110/5
f 61/103/6 59/111/6 58/112/6 63/105/6
f 65/113/7 66/114/7 67/115/7 68/116/7
f 68/116/8 67/115/8 69/117/8 70/118/8
f 70/118/9 69/117/9 71/119/9 72/120/9
f 72/120/10 71/119/10 66/121/10 65/122/10
f 68/123/5 70/118/5 72/120/5 65/124/5
f 69/117/6 67/125/6 66/126/6 71/119/6
f 73/127/1 74/128/1 75/129/1 76/130/1
f 76/130/2 75/129/2 77/131/2 78/132/2
f 78/132/3 77/131/3 79/133/3 80/134/3
f 80/134/4 79/133/4 74/135/4 73/136/4
f 76/137/5 78/132/5 80/134/5 73/138/5
f 77/131/6 75/139/6 74/140/6 79/133/6
f 81/141/19 82/142/19 83/143/19 84/144/19
f 84/144/12 83/143/12 85/145/12 86/146/12
f 86/146/20 85/145/20 87/147/20 88/148/20
f 88/148/14 87/147/14 82/149/14 81/150/14
f 84/151/5 86/146/5 88/148/5 81/152/5
f 85/145/6 83/153/6 82/154/6 87/147/6
f 89/155/15 90/156/15 91/157/15 92/158/15
f 92/158/16 91/157/16 93/159/16 94/160/16
f 94/160/17 93/159/17 95/161/17 96/162/17
f 96/162/18 95/161/18 90/163/18 89/164/18
f 92/165/5 94/160/5 96/162/5 89/166/5
f 93/159/6 91/167/6 90/168/6 95/161/6
f 97/169/15 98/170/15 99/171/15 100/172/15
f 100/172/16 99/171/16 101/173/16 102/174/16
f 102/174/17 101/173/17 103/175/17 104/176/17
f 104/176/18 103/175/18 98/177/18 97/178/18
f 100/179/5 102/174/5 104/176/5 97/180/5
f 101/173/6 99/181/6 98/182/6 103/175/6
f 105/183/11 106/184/11 107/185/11 108/186/11
f 108/186/12 107/185/12 109/187/12 110/188/12
f 110/188/13 109/187/13 111/189/13 112/190/13
f 112/190/14 111/189/14 106/191/14 105/192/14
f 108/193/5 110/188/5 112/190/5 105/194/5
f 109/187/6 107/195/6 106/196/6 111/189/6
f 113/197/1 114/198/1 115/199/1 116/200/1
f 116/200/2 115/199/2 117/201/2 118/202/2
f 118/202/3 117/201/3 119/203/3 120/204/3
f 120/204/4 119/203/4 114/205/4 113/206/4
f 116/207/5 118/202/5 120/204/5 113/208/5
f 117/201/6 115/209/6 114/210/6 119/203/6
f 121/211/7 122/212/7 123/213/7 124/214/7
f 124/214/8 123/213/8 125/215/8 126/216/8
f 126/216/9 125/215/9 127/217/9 128/218/9
f 128/218/10 127/217/10 122/219/10 121/220/10
f 124/221/5 126/216/5 128/218/5 121/222/5
f 125/215/6 123/223/6 122/224/6 127/217/6
f 129/225/15 130/226/15 131/227/15 132/228/15
f 132/228/16 131/227/16 133/229/16 134/230/16
f 134/230/17 133/229/17 135/231/17 136/232/17
f 136/232/18 135/231/18 130/233/18 129/234/18
f 132/235/5 134/230/5 136/232/5 129/236/5
f 133/229/6 131/237/6 130/238/6 135/231/6
