# Blender v2.83.0 OBJ File: 'newuvmappedterminal.blend'
# www.blender.org
mtllib Shrub.mtl
o Cube_Cube.003
v -1.781917 -0.979571 -0.318436
v -2.538548 0.588394 -0.375893
v -1.363785 -0.197022 -2.316499
v -1.437420 -1.139941 -1.751815
v -0.647285 -1.007149 -1.780090
v -0.284088 -0.458336 -2.157233
v 1.926520 0.449069 -2.093079
v 1.670192 -0.663668 -2.177720
v 2.003915 -1.033368 -0.212288
v 2.195603 0.513085 0.250305
v 2.081005 0.711936 3.046567
v 1.772511 -0.967313 2.184975
v -0.359887 -0.977559 2.532109
v -0.451247 0.673697 3.386293
v -2.625565 0.906020 2.621697
v -2.244627 -0.918605 2.255941
v 1.648967 -2.848313 -0.275507
v 1.477143 -2.784631 1.217483
v 4.273387 -8.003190 3.457569
v 4.273387 -8.003189 1.891375
v -0.113882 0.549823 -0.055176
v -1.655244 -2.867672 1.507408
v -1.146716 -2.740718 -0.487803
v -6.153466 -12.685194 0.885278
v -6.119974 -12.716764 2.450795
v -1.474700 -2.444734 -1.320449
v -0.589473 -1.928683 -1.466563
v -0.037638 -2.574588 -0.805671
v 1.199597 -1.962640 -1.843220
v -4.517229 -12.654372 2.417766
v -10.957340 -19.367710 -0.412478
v -9.354595 -19.305319 -0.445508
v -0.050945 -2.784631 1.217483
v -4.550720 -12.622803 0.852249
v -10.990831 -19.336140 -1.977996
v -9.388086 -19.273748 -2.011025
v 2.745299 -8.003189 1.891375
v 5.516398 -12.781818 -1.943324
v 3.988310 -12.781818 -1.943324
v 2.745300 -8.003190 3.457569
v 5.470040 -14.660262 -4.768054
v 6.998128 -14.660262 -4.768054
v 8.716146 -16.538708 -7.834962
v 6.715485 -16.538708 -7.834962
v 3.988310 -12.781818 -0.377130
v 5.516398 -12.781818 -0.377130
v 8.716146 -16.538710 -5.784411
v 6.715485 -16.538710 -5.784411
v 5.470040 -14.660262 -3.201860
v 6.998128 -14.660262 -3.201859
v 6.257264 -13.721041 -1.789495
v 4.729175 -13.721041 -1.789495
v 6.257264 -13.721040 -3.355688
v 4.729175 -13.721040 -3.355688
v 4.262109 -16.376637 6.564004
v 5.346449 -17.288839 5.910027
v 5.422556 -21.908789 7.110881
v 6.506896 -22.820992 6.456903
v 4.139061 -17.666138 5.665118
v 3.054721 -16.753935 6.319095
v 4.215168 -22.286089 6.865969
v 5.299509 -23.198292 6.211994
v -10.673705 -28.842484 -2.376460
v -5.439566 -24.843929 1.426320
v -12.046469 -26.074142 4.476021
v -5.439566 -24.843927 -6.179239
v -17.317398 -26.444626 -1.349032
v -13.473283 -25.214411 -8.201513
v -4.203909 -18.374096 -2.376458
v -8.674482 -18.374096 3.776620
v -15.281385 -19.604309 2.125723
v -16.708199 -18.744579 -5.851213
v -8.674482 -18.374094 -8.529536
v -10.673705 -14.375543 -2.376457
v -1.959747 -34.256119 4.000793
v 10.676836 -34.356937 4.074471
v 3.141351 -33.956539 12.220661
v 7.719826 -27.000454 -3.699888
v -6.378802 -27.749018 11.838940
v -3.549027 -23.449944 1.999390
v 15.719603 -24.476192 3.576012
v 12.889828 -28.775267 13.415563
v 3.526769 -23.828211 16.756828
v 0.569759 -16.471727 8.982469
v 8.105245 -16.872128 0.836277
v 11.300548 -17.969090 11.414161
v 7.629489 -23.005884 -8.073971
v 13.442541 -19.196541 -8.472524
v 11.899641 -21.659323 -3.233068
v 7.583318 -17.919106 -11.239488
v 5.931594 -21.419540 -2.760554
v 2.941291 -19.292965 -7.709356
v 11.824904 -13.428701 -8.354991
v 13.970362 -16.039715 -3.407470
v 9.328336 -17.413574 0.122662
v 4.313957 -15.651700 -2.643021
v 5.856857 -13.188920 -7.882476
v 9.282165 -12.326793 -3.042855
vt 0.500000 0.402195
vt 0.532602 0.402195
vt 0.532602 0.434796
vt 0.500000 0.434796
vt 0.500000 0.468191
vt 0.532602 0.468191
vt 0.532602 0.500000
vt 0.500000 0.500000
vt 0.500000 0.532602
vt 0.532602 0.532602
vt 0.532602 0.565204
vt 0.500000 0.565204
vt 0.500000 0.597012
vt 0.532602 0.597012
vt 0.532602 0.630407
vt 0.500000 0.630407
vt 0.467398 0.532602
vt 0.467398 0.565204
vt 0.467398 0.565204
vt 0.467398 0.532602
vt 0.564410 0.532602
vt 0.597805 0.532602
vt 0.597805 0.565204
vt 0.564410 0.565204
vt 0.467398 0.369593
vt 0.467398 0.402195
vt 0.467398 0.402195
vt 0.467398 0.369593
vt 0.402195 0.500000
vt 0.435590 0.500000
vt 0.435590 0.532602
vt 0.402195 0.532602
vt 0.564410 0.500000
vt 0.597805 0.500000
vt 0.467398 0.500000
vt 0.500000 0.369593
vt 0.532602 0.369593
vt 0.467398 0.597012
vt 0.467398 0.630407
vt 0.467398 0.630407
vt 0.467398 0.597012
vt 0.467398 0.597012
vt 0.467398 0.630407
vt 0.435590 0.565204
vt 0.435590 0.565204
vt 0.435590 0.532602
vt 0.402195 0.532602
vt 0.402195 0.532602
vt 0.435590 0.532602
vt 0.435590 0.565204
vt 0.402195 0.565204
vt 0.467398 0.402195
vt 0.467398 0.369593
vt 0.435590 0.532602
vt 0.467398 0.532602
vt 0.435590 0.532602
vt 0.467398 0.597012
vt 0.435590 0.565204
vt 0.435590 0.532602
vt 0.467398 0.532602
vt 0.467398 0.532602
vt 0.435590 0.532602
vt 0.435590 0.565204
vt 0.467398 0.565204
vt 0.467398 0.597012
vt 0.467398 0.565204
vt 0.435590 0.565204
vt 0.435590 0.565204
vt 0.467398 0.565204
vt 0.467398 0.597012
vt 0.467398 0.597012
vt 0.467398 0.565204
vt 0.467398 0.597012
vt 0.467398 0.532602
vt 0.435590 0.565204
vt 0.435590 0.532602
vt 0.467398 0.565204
vt 0.467398 0.565204
vt 0.467398 0.565204
vt 0.467398 0.565204
vt 0.435590 0.565204
vt 0.435590 0.565204
vt 0.467398 0.597012
vt 0.467398 0.597012
vt 0.467398 0.597012
vt 0.467398 0.597012
vt 0.435590 0.565204
vt 0.435590 0.565204
vt 0.467398 0.434796
vt 0.467398 0.468191
vt 0.208758 0.807212
vt 0.188734 0.841896
vt 0.228783 0.841896
vt 0.168709 0.807212
vt 0.148684 0.841896
vt 0.048561 0.807212
vt 0.028536 0.841896
vt 0.068585 0.841896
vt 0.088610 0.807212
vt 0.108635 0.841896
vt 0.128659 0.807212
vt 0.168709 0.876580
vt 0.208758 0.876580
vt 0.048561 0.876580
vt 0.088610 0.876580
vt 0.128659 0.876580
vt 0.248808 0.876580
vt 0.188734 0.911264
vt 0.228783 0.911264
vt 0.068585 0.911264
vt 0.108635 0.911264
vt 0.148684 0.911264
vt 0.208758 0.807212
vt 0.188734 0.841896
vt 0.228783 0.841896
vt 0.168709 0.807212
vt 0.148684 0.841896
vt 0.048561 0.807212
vt 0.028536 0.841896
vt 0.068585 0.841896
vt 0.088610 0.807212
vt 0.108635 0.841896
vt 0.128659 0.807212
vt 0.168709 0.876580
vt 0.208758 0.876580
vt 0.048561 0.876580
vt 0.088610 0.876580
vt 0.128659 0.876580
vt 0.248808 0.876580
vt 0.188734 0.911264
vt 0.228783 0.911264
vt 0.068585 0.911264
vt 0.108635 0.911264
vt 0.148684 0.911264
vt 0.208758 0.807212
vt 0.188734 0.841896
vt 0.228783 0.841896
vt 0.168709 0.807212
vt 0.148684 0.841896
vt 0.048561 0.807212
vt 0.028536 0.841896
vt 0.068585 0.841896
vt 0.088610 0.807212
vt 0.108635 0.841896
vt 0.128659 0.807212
vt 0.168709 0.876580
vt 0.208758 0.876580
vt 0.048561 0.876580
vt 0.088610 0.876580
vt 0.128659 0.876580
vt 0.248808 0.876580
vt 0.188734 0.911264
vt 0.228783 0.911264
vt 0.068585 0.911264
vt 0.108635 0.911264
vt 0.148684 0.911264
vn -0.8941 -0.3207 -0.3127
vn -0.0275 -0.1634 -0.9862
vn 0.9803 -0.1826 0.0746
vn -0.2561 -0.3509 0.9007
vn 0.8786 0.4759 0.0394
vn 0.0736 0.9953 -0.0634
vn -0.0007 0.9987 -0.0517
vn -0.9020 0.4197 -0.1016
vn 0.1340 -0.4607 0.8774
vn 0.0220 -0.5383 -0.8424
vn 0.1373 -0.7993 -0.5850
vn -0.1677 0.9620 -0.2155
vn 0.1299 0.9179 -0.3750
vn -0.0495 -0.8334 -0.5505
vn 0.9799 -0.1349 -0.1467
vn -0.9476 -0.3112 -0.0723
vn 0.0349 -0.4165 0.9085
vn 0.0971 0.0640 0.9932
vn 0.9094 -0.4147 -0.0330
vn -0.1201 -0.0927 -0.9884
vn 0.0385 -0.9990 -0.0210
vn 0.8143 -0.5797 -0.0291
vn -0.8143 0.5797 0.0291
vn -0.0349 0.4165 -0.9085
vn 0.0000 0.6259 -0.7799
vn 0.1215 -0.3626 -0.9240
vn 0.0000 0.3944 0.9189
vn -0.8793 -0.4752 -0.0311
vn 0.0000 0.8528 -0.5223
vn -0.9678 -0.2517 0.0000
vn 0.9678 0.2517 0.0000
vn 0.0000 -0.6259 0.7799
vn 0.0000 -1.0000 -0.0000
vn -0.8335 -0.5526 0.0000
vn 0.7379 0.6749 0.0000
vn 0.0000 -0.8087 0.5882
vn -0.0000 -0.8327 0.5537
vn 0.7851 0.6193 0.0000
vn -0.7851 -0.6193 -0.0000
vn 0.0000 0.8327 -0.5537
vn 0.8310 0.4412 0.3387
vn 0.6265 0.2057 0.7518
vn -0.8308 -0.4428 -0.3372
vn -0.1616 0.8737 0.4589
vn 0.1609 -0.8905 -0.4255
vn 0.0127 -0.5726 0.8197
vn -0.2140 0.0515 0.9755
vn 0.2140 -0.0515 -0.9755
vn -0.6265 -0.2057 -0.7518
vn -0.9435 -0.2609 -0.2043
vn 0.9158 -0.2688 -0.2985
vn 0.0241 -0.3170 -0.9481
vn 0.0815 -0.5308 0.8435
vn 0.0068 -0.4802 0.8771
vn 0.9729 -0.2047 0.1077
vn -0.1613 -0.2487 -0.9550
vn -0.9810 -0.1929 -0.0187
vn 0.3464 -0.8436 0.4102
vn 0.6071 -0.7947 0.0000
vn -0.2798 -0.9083 0.3109
vn -0.3655 -0.8587 -0.3592
vn 0.1830 -0.7926 -0.5816
vn 0.9822 -0.1876 0.0000
vn 0.4332 -0.1084 0.8948
vn -0.7320 -0.1226 0.6702
vn -0.8303 -0.2309 -0.5072
vn 0.2477 -0.2190 -0.9438
vn 0.7946 0.1876 0.5774
vn -0.2730 0.2049 0.9399
vn -0.9629 0.1888 0.1926
vn -0.3186 0.1789 -0.9309
vn 0.7946 0.1876 -0.5774
vn 0.4911 0.7947 0.3568
vn -0.2875 0.7577 0.5858
vn -0.6464 0.7376 0.1951
vn -0.2299 0.7802 -0.5817
vn 0.4911 0.7947 -0.3568
vn -0.0082 -0.9991 0.0415
vn -0.0018 -0.7267 -0.6870
vn -0.5211 -0.7776 0.3518
vn -0.9151 -0.1995 -0.3503
vn -0.4957 -0.2281 -0.8380
vn 0.6850 -0.3809 -0.6210
vn 0.3908 -0.8280 0.4022
vn -0.2848 -0.3828 0.8788
vn -0.8532 0.5212 -0.0176
vn -0.3109 0.3983 -0.8629
vn 0.8904 -0.4514 0.0588
vn 0.1068 -0.4098 0.9059
vn -0.5358 0.5021 0.6789
vn -0.4689 0.7475 -0.4705
vn 0.5829 0.3136 -0.7496
vn 0.9151 0.1995 0.3503
vn 0.4308 0.2252 0.8739
vn -0.0585 0.7139 0.6978
vn 0.1233 0.9902 0.0654
vn 0.7251 0.6723 -0.1493
vn 0.5220 -0.8208 -0.2321
vn 0.2756 -0.5061 -0.8173
vn -0.0163 -0.9595 0.2813
vn -0.6187 -0.7848 0.0366
vn -0.4377 -0.4779 -0.7616
vn 0.4480 0.1436 -0.8824
vn 0.9333 -0.3403 0.1149
vn 0.0386 -0.6051 0.7952
vn -0.8723 -0.2532 0.4183
vn -0.6322 0.2815 -0.7218
vn 0.9278 0.2655 -0.2622
vn 0.6304 -0.2091 0.7476
vn -0.5198 -0.1629 0.8386
vn -0.9012 0.4286 -0.0639
vn -0.0423 0.5679 -0.8220
vn 0.6215 0.7712 0.1375
vn 0.4377 0.4779 0.7616
vn -0.2731 0.5065 0.8179
vn -0.5287 0.8175 0.2286
vn 0.0242 0.9811 -0.1919
usemtl None.002
s 1
f 1/1/1 2/2/1 3/3/1 4/4/1
f 5/5/2 6/6/2 7/7/2 8/8/2
f 9/9/3 10/10/3 11/11/3 12/12/3
f 13/13/4 14/14/4 15/15/4 16/16/4
f 17/17/5 18/18/5 19/19/5 20/20/5
f 21/21/6 2/22/6 15/23/6 14/24/6
f 10/10/7 21/21/7 14/24/7 11/11/7
f 22/25/8 23/26/8 24/27/8 25/28/8
f 12/12/9 11/11/9 14/14/9 13/13/9
f 4/4/10 3/3/10 6/6/10 5/5/10
f 26/29/11 27/30/11 28/31/11 23/32/11
f 7/7/12 6/33/12 21/21/12 10/10/12
f 6/33/13 3/34/13 2/22/13 21/21/13
f 27/30/14 29/35/14 17/17/14 28/31/14
f 8/8/15 7/7/15 10/10/15 9/9/15
f 16/36/16 15/37/16 2/2/16 1/1/16
f 30/38/17 25/39/17 31/40/17 32/41/17
f 33/42/18 22/43/18 25/39/18 30/38/18
f 28/31/19 33/44/19 30/45/19 34/46/19
f 23/32/20 28/31/20 34/46/20 24/47/20
f 35/48/21 36/49/21 32/50/21 31/51/21
f 34/46/22 30/45/22 32/50/22 36/49/22
f 25/28/23 24/27/23 35/52/23 31/53/23
f 24/47/24 34/46/24 36/49/24 35/48/24
f 37/54/25 20/20/25 38/55/25 39/56/25
f 28/31/26 17/17/26 20/20/26 37/54/26
f 18/18/27 33/42/27 40/57/27 19/19/27
f 33/44/28 28/31/28 37/54/28 40/58/28
f 41/59/29 42/60/29 43/61/29 44/62/29
f 40/58/30 37/54/30 39/56/30 45/63/30
f 20/20/31 19/19/31 46/64/31 38/55/31
f 19/19/32 40/57/32 45/65/32 46/64/32
f 44/62/33 43/61/33 47/66/33 48/67/33
f 49/68/34 41/59/34 44/62/34 48/67/34
f 42/60/35 50/69/35 47/66/35 43/61/35
f 50/69/36 49/70/36 48/71/36 47/66/36
f 51/72/37 52/73/37 49/70/37 50/69/37
f 53/74/38 51/72/38 50/69/38 42/60/38
f 52/75/39 54/76/39 41/59/39 49/68/39
f 54/76/40 53/74/40 42/60/40 41/59/40
f 39/56/40 38/55/40 53/74/40 54/76/40
f 45/63/39 39/56/39 54/76/39 52/75/39
f 38/55/38 46/64/38 51/72/38 53/74/38
f 51/72/41 46/64/41 55/77/41 56/78/41
f 56/78/42 55/77/42 57/79/42 58/80/42
f 45/63/43 52/75/43 59/81/43 60/82/43
f 46/64/44 45/65/44 60/83/44 55/77/44
f 52/73/45 51/72/45 56/78/45 59/84/45
f 57/79/46 61/85/46 62/86/46 58/80/46
f 55/77/47 60/83/47 61/85/47 57/79/47
f 59/84/48 56/78/48 58/80/48 62/86/48
f 60/82/49 59/81/49 62/87/49 61/88/49
f 22/25/50 16/36/50 1/1/50 23/26/50
f 29/35/51 8/8/51 9/9/51 17/17/51
f 26/89/52 4/4/52 5/5/52 27/90/52
f 18/18/53 12/12/53 13/13/53 33/42/53
f 33/42/54 13/13/54 16/16/54 22/43/54
f 17/17/55 9/9/55 12/12/55 18/18/55
f 27/90/56 5/5/56 8/8/56 29/35/56
f 23/26/57 1/1/57 4/4/57 26/89/57
f 63/91/58 64/92/58 65/93/58
f 64/92/59 63/94/59 66/95/59
f 63/96/60 65/97/60 67/98/60
f 63/99/61 67/98/61 68/100/61
f 63/101/62 68/100/62 66/95/62
f 64/92/63 66/95/63 69/102/63
f 65/93/64 64/92/64 70/103/64
f 67/98/65 65/97/65 71/104/65
f 68/100/66 67/98/66 72/105/66
f 66/95/67 68/100/67 73/106/67
f 64/92/68 69/102/68 70/103/68
f 65/93/69 70/103/69 71/107/69
f 67/98/70 71/104/70 72/105/70
f 68/100/71 72/105/71 73/106/71
f 66/95/72 73/106/72 69/102/72
f 70/103/73 69/102/73 74/108/73
f 71/107/74 70/103/74 74/109/74
f 72/105/75 71/104/75 74/110/75
f 73/106/76 72/105/76 74/111/76
f 69/102/77 73/106/77 74/112/77
f 75/113/78 76/114/78 77/115/78
f 76/114/79 75/116/79 78/117/79
f 75/118/80 77/119/80 79/120/80
f 75/121/81 79/120/81 80/122/81
f 75/123/82 80/122/82 78/117/82
f 76/114/83 78/117/83 81/124/83
f 77/115/84 76/114/84 82/125/84
f 79/120/85 77/119/85 83/126/85
f 80/122/86 79/120/86 84/127/86
f 78/117/87 80/122/87 85/128/87
f 76/114/88 81/124/88 82/125/88
f 77/115/89 82/125/89 83/129/89
f 79/120/90 83/126/90 84/127/90
f 80/122/91 84/127/91 85/128/91
f 78/117/92 85/128/92 81/124/92
f 82/125/93 81/124/93 86/130/93
f 83/129/94 82/125/94 86/131/94
f 84/127/95 83/126/95 86/132/95
f 85/128/96 84/127/96 86/133/96
f 81/124/97 85/128/97 86/134/97
f 87/135/98 88/136/98 89/137/98
f 88/136/99 87/138/99 90/139/99
f 87/140/100 89/141/100 91/142/100
f 87/143/101 91/142/101 92/144/101
f 87/145/102 92/144/102 90/139/102
f 88/136/103 90/139/103 93/146/103
f 89/137/104 88/136/104 94/147/104
f 91/142/105 89/141/105 95/148/105
f 92/144/106 91/142/106 96/149/106
f 90/139/107 92/144/107 97/150/107
f 88/136/108 93/146/108 94/147/108
f 89/137/109 94/147/109 95/151/109
f 91/142/110 95/148/110 96/149/110
f 92/144/111 96/149/111 97/150/111
f 90/139/112 97/150/112 93/146/112
f 94/147/113 93/146/113 98/152/113
f 95/151/114 94/147/114 98/153/114
f 96/149/115 95/148/115 98/154/115
f 97/150/116 96/149/116 98/155/116
f 93/146/117 97/150/117 98/156/117
